# xmcd
#
# Track frame offsets:
#	150
#	20323
#	38054
#	56726
#	74649
#	84686
#	94371
#	123450
#	142491
#	163186
#	181401
#	196597
#	207181
#	221687
#	241661
#	263067
#	286308
#	301416
#
# Disc length: 4290 seconds
#
# Revision: 1
# Processed by: cddbd v1.5.2PL0 Copyright (c) Steve Scherf et al.
# Submitted via: audiograbber 1.83.01
#
DISCID=1110c012
DTITLE=Moby - 18
DYEAR=2002
DGENRE=Electronic
TTITLE0=We are all made of stars
TTITLE1=In this world
TTITLE2=In my heart
TTITLE3=Great escape
TTITLE4=Signs of love
TTITLE5=One of this mornings
TTITLE6=Another woman
TTITLE7=Fireworks
TTITLE8=Extreme ways
TTITLE9=Jam for the ladies
TTITLE10=Sunday (The day before my birthday)
TTITLE11=18
TTITLE12=Sleep alone
TTITLE13=At least we tried
TTITLE14=Harbour
TTITLE15=Lock back in
TTITLE16=The ratters
TTITLE17=Im not worried at all
EXTD=
EXTT0=
EXTT1=
EXTT2=
EXTT3=
EXTT4=
EXTT5=
EXTT6=
EXTT7=
EXTT8=
EXTT9=
EXTT10=
EXTT11=
EXTT12=
EXTT13=
EXTT14=
EXTT15=
EXTT16=
EXTT17=
PLAYORDER=
